

<svg version="1.0" xmlns="http://www.w3.org/2000/svg"
 width="30" height="33" viewBox="0 0 2000.000000 2000.000000"
 preserveAspectRatio="xMidYMid meet">
  <g transform="translate(0.000000,2000.000000) scale(0.100000,-0.100000)" stroke="none">
    <path fill="#0e5a9c" d="M6678 17301 l-3364 -1937 1524 -878 c839 -484 1530 -879 1537 -879 7
    0 818 464 1802 1031 984 568 1799 1032 1811 1032 18 0 4626 -2642 4755 -2726
    l37 -24 0 -2758 -1 -2757 -2383 -1373 c-1310 -754 -2392 -1372 -2404 -1372
    -12 0 -792 443 -1733 985 -942 542 -1715 985 -1719 985 -11 0 -3295 -1900
    -3297 -1908 -4 -9 6798 -3918 6811 -3914 5 2 1809 1039 4008 2305 l3998 2302
    0 3651 c0 2008 -3 4083 -7 4611 l-6 960 -3626 2084 c-1994 1146 -3795 2181
    -4002 2300 l-377 217 -3364 -1937z"/>
    <path fill="#4d4d4d" d="M1930 10070 c0 -2112 2 -3840 4 -3840 2 0 907 523 2012 1161 1105
    639 2027 1171 2050 1183 119 62 2574 1491 2572 1498 -3 6 -2633 1535 -2798
    1625 -71 39 -3781 2176 -3817 2199 l-23 14 0 -3840z"/>
  </g>
</svg>
